<?xml version="1.0" encoding="UTF-8"?> <svg xmlns="http://www.w3.org/2000/svg" width="100" height="49" viewBox="0 0 100 49" fill="none"><path d="M50.0085 12.3591C50.0255 12.3591 50.0511 12.3762 50.0596 12.3848C54.6407 15.8854 62.4915 24.5556 60.0988 27.0035C57.3995 29.3743 53.8658 30.8122 50.0085 30.8122C46.1427 30.8122 42.6175 29.3743 39.9183 27.0035C37.5255 24.5556 45.3764 15.8854 49.9574 12.3848C49.9659 12.3677 49.9915 12.3591 50.0085 12.3591ZM57.9871 2.251C55.6454 0.855895 53.0995 0 50.0085 0C46.9176 0 44.3716 0.855895 42.0215 2.251C41.9959 2.26812 41.9789 2.30236 41.9959 2.32804C42.0044 2.35371 42.0385 2.36227 42.0725 2.35371C45.0443 1.71179 49.5487 4.28803 49.9745 4.5448C49.983 4.55336 49.9915 4.55336 50.0085 4.55336C50.0255 4.55336 50.0341 4.5448 50.0426 4.5448C50.4683 4.28803 54.9813 1.71179 57.9445 2.35371C57.9785 2.36227 58.0041 2.35371 58.0211 2.32804C58.0296 2.30236 58.0211 2.26812 57.9871 2.251ZM39.2796 4.41642C39.2541 4.43354 39.2285 4.45066 39.2115 4.46777C36.4101 7.26655 34.6815 11.1266 34.6815 15.4061C34.6815 18.9153 35.8481 22.1506 37.8151 24.7439C37.8321 24.7696 37.8661 24.7867 37.9002 24.7696C37.9257 24.7525 37.9258 24.7183 37.9172 24.6926C36.7422 21.055 42.7197 12.2479 45.8021 8.55895C45.8106 8.55039 45.8191 8.53328 45.8191 8.51616C45.8191 8.49048 45.8106 8.48192 45.7936 8.4648C41.1189 3.79162 39.5351 4.28803 39.2796 4.41642ZM54.2149 8.4648C54.1979 8.47336 54.1894 8.49048 54.1894 8.51616C54.1894 8.53328 54.1979 8.55039 54.2064 8.55895C57.2888 12.2479 63.2663 21.055 62.0998 24.684C62.0913 24.7097 62.0913 24.7439 62.1168 24.761C62.1424 24.7782 62.1764 24.761 62.202 24.7354C64.1689 22.142 65.3355 18.9153 65.3355 15.3976C65.3355 11.1181 63.5984 7.25799 60.8055 4.46777C60.7885 4.45066 60.7629 4.42498 60.7374 4.41642C60.4734 4.28803 58.8896 3.79162 54.2149 8.4648ZM20.6488 35.6138H18.4009L13.3174 48.7004H15.3781L16.6383 45.3111H22.4114L23.6717 48.7004H25.7323L20.6488 35.6138ZM17.2769 43.5651L19.5249 37.5738L21.7728 43.5651H17.2769ZM12.2786 41.8019V44.207V48.7004H10.4053V46.9886C9.91996 47.6477 9.33242 48.1527 8.6342 48.4865C7.92745 48.8288 7.1015 49 6.18188 49C5.24523 49 4.39373 48.8374 3.65293 48.5293C2.91213 48.2126 2.25647 47.7333 1.703 47.1085C1.14101 46.4837 0.706744 45.7562 0.425749 44.9345C0.144755 44.1128 0 43.1799 0 42.17C0 41.1429 0.144755 40.2014 0.425749 39.3797C0.706744 38.5581 1.14101 37.8306 1.71151 37.2143C2.2735 36.5895 2.94619 36.1188 3.70402 35.8107C4.46185 35.5025 5.33038 35.3399 6.28406 35.3399C7.87636 35.3399 9.2047 35.7593 10.252 36.5895C11.2824 37.4283 11.9125 38.5666 12.1168 39.9532V39.9789H10.0732V39.9617C9.89441 39.0887 9.46015 38.3955 8.77895 37.8819C8.09775 37.3769 7.26328 37.1202 6.30109 37.1202C5.01533 37.1202 3.9765 37.5824 3.21866 38.4896C2.4438 39.3883 2.06063 40.6293 2.06063 42.1785C2.06063 43.7277 2.45232 44.9687 3.21866 45.8674C4.00204 46.7747 5.04939 47.2369 6.34366 47.2369C7.46764 47.2369 8.42132 46.8774 9.19619 46.1755C9.96253 45.4908 10.3713 44.6007 10.4138 43.5308H6.58208V41.8276H12.2786V41.8019ZM44.1161 37.4112V41.2028H50.5875V42.8718H44.1161V46.9031H51.4305V48.7004H42.1322V35.6138H51.4305V37.4112H44.1161ZM40.1396 35.6138V48.7004H38.2238V38.3099C37.9768 39.0374 37.6448 39.9446 37.236 41.0059L34.2984 48.7004H32.6294L32.6209 48.6919L29.6492 41.0145C29.2916 40.0645 28.968 39.1743 28.687 38.3612V48.7004H26.7711V35.6138H29.5044L32.1696 42.5722C32.7061 43.9845 33.1488 45.1998 33.4809 46.2012C33.8726 45.0115 34.3239 43.7277 34.8093 42.3925L37.3808 35.6224H40.1396V35.6138ZM65.2333 36.7265C64.4584 35.9904 63.343 35.6138 61.938 35.6138H56.3948V48.7004H58.3873V43.8817H61.938C63.343 43.8817 64.4584 43.5052 65.2333 42.7691C66.0082 42.033 66.4084 41.0145 66.4084 39.7563C66.3999 38.481 66.0082 37.4625 65.2333 36.7265ZM58.3787 37.3769H61.8954C62.7044 37.3769 63.326 37.5824 63.7432 37.9932C64.1604 38.404 64.3733 38.9946 64.3733 39.7563C64.3733 40.5181 64.1604 41.1086 63.7432 41.5109C63.326 41.9132 62.7044 42.1186 61.8954 42.1186H58.3787V37.3769ZM88.4196 45.0714C88.4196 46.2783 87.9683 47.2454 87.0742 47.9473C86.1802 48.6405 84.9285 49 83.3532 49C81.6417 49 80.2963 48.6063 79.3426 47.8189C78.389 47.04 77.8951 45.876 77.8866 44.3782V44.361H79.8791V44.3782C79.8961 45.3453 80.2027 46.0814 80.7817 46.5607C81.3607 47.04 82.2462 47.2882 83.3958 47.2882C84.3495 47.2882 85.0903 47.0999 85.6012 46.7319C86.1121 46.3638 86.3675 45.8246 86.3675 45.1228C86.3675 44.5579 86.1546 44.1128 85.7374 43.8133C85.3202 43.5052 84.5453 43.2227 83.4469 42.9831L82.3314 42.7434C80.9945 42.4781 79.9727 42.033 79.3001 41.4168C78.6189 40.8091 78.2697 39.9532 78.2697 38.8748C78.2697 37.7963 78.687 36.9233 79.5129 36.2814C80.3389 35.6395 81.4714 35.3142 82.8764 35.3142C84.5708 35.3142 85.8736 35.6823 86.7251 36.4183C87.5851 37.1544 88.0279 38.1729 88.0535 39.4568V39.4739H86.0865V39.4568C86.0269 38.6266 85.7459 38.0017 85.2606 37.608C84.7752 37.2143 83.9748 37.0175 82.8934 37.0175C82.0504 37.0175 81.3947 37.1801 80.952 37.4882C80.5092 37.7963 80.2878 38.25 80.2878 38.832C80.2878 39.4225 80.4836 39.8762 80.8839 40.1757C81.2841 40.501 82.0249 40.7834 83.0977 41.0145L84.2302 41.2541C85.7118 41.5708 86.7847 42.033 87.4404 42.6321C88.096 43.2313 88.4196 44.0529 88.4196 45.0714ZM100 45.0714C100 46.2783 99.5487 47.2454 98.6546 47.9473C97.7606 48.6405 96.5089 49 94.9336 49C93.2221 49 91.8767 48.6063 90.923 47.8189C89.9693 47.04 89.4755 45.876 89.467 44.3782V44.361H91.4595V44.3782C91.4765 45.3453 91.783 46.0814 92.3621 46.5607C92.9411 47.04 93.8266 47.2882 94.9762 47.2882C95.9298 47.2882 96.6706 47.0999 97.1815 46.7319C97.6924 46.3638 97.9479 45.8246 97.9479 45.1228C97.9479 44.5579 97.735 44.1128 97.3178 43.8133C96.9005 43.5052 96.1257 43.2227 95.0272 42.9831L93.9118 42.7434C92.5749 42.4781 91.5531 42.033 90.8804 41.4168C90.1992 40.8091 89.8501 39.9532 89.8501 38.8748C89.8501 37.7963 90.2674 36.9233 91.0933 36.2814C91.9193 35.6395 93.0518 35.3142 94.4567 35.3142C96.1512 35.3142 97.454 35.6823 98.3055 36.4183C99.1655 37.1544 99.6083 38.1729 99.6339 39.4568V39.4739H97.6669V39.4568C97.6073 38.6266 97.3263 38.0017 96.8409 37.608C96.3556 37.2143 95.5552 37.0175 94.4738 37.0175C93.6308 37.0175 92.9751 37.1801 92.5324 37.4882C92.0896 37.7963 91.8682 38.25 91.8682 38.832C91.8682 39.4225 92.064 39.8762 92.4642 40.1757C92.8644 40.501 93.6052 40.7834 94.6781 41.0145L95.8106 41.2541C97.2922 41.5708 98.3651 42.033 99.0208 42.6321C99.6764 43.2313 100 44.0529 100 45.0714ZM72.3518 35.6138H70.1039L65.0204 48.7004H67.0811L68.3413 45.3111H74.1144L75.3661 48.7004H77.4268L72.3518 35.6138ZM68.9714 43.5651L71.2193 37.5738L73.4673 43.5651H68.9714Z" fill="black"></path></svg> 