<?xml version="1.0" encoding="UTF-8"?> <svg xmlns="http://www.w3.org/2000/svg" width="95" height="27" viewBox="0 0 95 27" fill="none"><path d="M0.755127 13.9611C0.755127 21.134 0.772867 27 0.79652 27C0.832 27 5.65137 26.1071 6.24271 25.9888L6.5502 25.9297V21.1399V16.356H8.38333H10.2165V15.4808C10.2165 15.0018 10.2342 13.7541 10.2579 12.7015L10.2933 10.7975H8.42473H6.5502V8.69822V6.59898H8.70857C9.89715 6.59898 10.8669 6.58715 10.8669 6.56941C10.8669 6.50437 11.34 1.45438 11.3696 1.2001L11.4051 0.922176H6.07713H0.755127V13.9611Z" fill="black"></path><path d="M89.2069 1.68504L84.488 2.07532V13.8547V25.6341L84.6832 25.6636C84.8547 25.6932 93.9908 26.3555 94.1741 26.3496C94.2273 26.3496 94.245 25.7228 94.245 23.4225V20.4954H92.2345H90.224V18.3666V16.2378H91.9388H93.6537V13.695V11.1523H91.8797H90.1057V9.46699V7.78169L90.2417 7.75804C90.3127 7.7403 90.9158 7.71664 91.584 7.69299C92.2523 7.67525 93.1215 7.64568 93.5236 7.62203L94.245 7.58655V4.43474V1.27702L94.0854 1.28293C93.9908 1.28884 91.7969 1.46624 89.2069 1.68504Z" fill="black"></path><path d="M58.9128 2.50103C58.9719 3.09236 59.646 12.0038 59.6342 12.0156C59.6283 12.0274 58.759 9.8927 57.7005 7.27309C56.6479 4.65348 55.7609 2.48329 55.7373 2.4419C55.7018 2.37685 54.0697 2.67843 51.391 3.24611L51.1367 3.29933V13.4644V23.6294H53.7682H56.3996L56.37 23.2036C56.3109 22.4112 56.0921 15.8593 56.1157 15.5991C56.1335 15.3685 56.3109 15.7706 57.9903 19.8271C59.0074 22.293 59.8707 24.3331 59.8944 24.3686C59.9299 24.404 60.7518 24.3508 62.1474 24.2325C63.3596 24.1261 64.353 24.0315 64.353 24.0256C64.3589 24.0197 64.3294 19.7561 64.288 14.5524C64.2466 9.34867 64.2111 4.43469 64.2111 3.62456L64.2052 2.16397H61.5442H58.8773L58.9128 2.50103Z" fill="black"></path><path d="M17.2829 2.52464C13.7467 2.76117 11.8012 5.17973 11.1862 10.0878C11.062 11.1049 11.0088 14.5583 11.0975 15.7646C11.3932 19.6792 12.4517 22.222 14.3321 23.517C15.3433 24.2089 16.863 24.5814 18.365 24.4927C20.074 24.3981 21.2389 23.9132 22.2855 22.8665C23.143 22.0091 23.6101 21.2049 24.0596 19.833C24.6864 17.9171 24.9702 15.055 24.8283 12.0747C24.6686 8.73956 24.166 6.66397 23.1312 5.07329C22.1436 3.55947 20.5825 2.65473 18.7612 2.54238C18.4714 2.52464 18.164 2.5069 18.0812 2.49507C17.9984 2.48916 17.6436 2.50098 17.2829 2.52464ZM18.1166 7.17252C18.5483 7.63968 18.7316 9.50238 18.7316 13.488C18.7316 18.396 18.4241 20.4361 17.75 19.9986C17.4603 19.8034 17.2415 18.8514 17.135 17.2725C17.0582 16.1194 17.0582 10.8388 17.135 9.733C17.2474 8.17188 17.4484 7.30853 17.75 7.10156C17.9156 6.9833 17.9452 6.98921 18.1166 7.17252Z" fill="black"></path><path d="M25.5911 13.2751V24.0433H28.3053H31.0136L31.0491 23.2923C31.0727 22.8725 31.12 21.5124 31.1555 20.2588C31.191 19.0052 31.2383 17.9053 31.262 17.8166C31.2915 17.6924 31.5458 18.4907 32.3264 21.1872C32.894 23.1327 33.373 24.747 33.3967 24.7707C33.444 24.8239 38.9907 24.3863 39.0498 24.3272C39.0676 24.3035 38.4526 22.3699 37.6838 20.0163L36.2883 15.7469L36.584 15.4867C37.5656 14.6293 38.3757 12.9736 38.6063 11.3356C38.7068 10.62 38.6418 8.84605 38.4881 8.18967C37.8967 5.61736 36.3297 3.61866 34.331 2.87358C33.4617 2.55425 33.5327 2.56017 29.4229 2.53651L25.5911 2.51286V13.2751ZM31.6877 7.61016C32.1076 7.81713 32.4505 8.34933 32.6339 9.08258C32.758 9.57339 32.7403 11.1286 32.6043 11.6253C32.35 12.5596 31.9006 13.1037 31.2265 13.3106L31.0905 13.3461V10.3894V7.42685L31.2856 7.46824C31.3861 7.48598 31.5694 7.55103 31.6877 7.61016Z" fill="black"></path><path d="M38.7778 5.32748V8.07718H40.2857H41.7936V16.0011V23.9249H44.632H47.4704V16.4741V9.02331H49.0079H50.5454V6.27361V3.52391L50.4153 3.50026C50.2911 3.47069 39.0144 2.57186 38.8547 2.57778C38.7956 2.57778 38.7778 3.16911 38.7778 5.32748Z" fill="black"></path><path d="M65.447 13.9021V24.6348H68.3741H71.3012V13.9021V3.16935H68.3741H65.447V13.9021Z" fill="black"></path><path d="M77.9833 3.91442C74.7782 4.08591 72.1113 4.22783 72.0581 4.22783C71.9576 4.23374 71.9517 4.40523 71.9517 7.01301V9.79228H73.4596H74.9675V17.5683V25.3444H77.8354H80.7034V17.2431V9.14181H82.3H83.8966V6.36255C83.8966 4.83099 83.8789 3.58919 83.8552 3.58919C83.8256 3.5951 81.1883 3.73702 77.9833 3.91442Z" fill="black"></path></svg> 